<?xml version="1.0" encoding="utf-8"?>
<!-- Generator: Adobe Illustrator 19.0.0, SVG Export Plug-In . SVG Version: 6.00 Build 0)  -->
<svg version="1.1" id="Layer_1" xmlns="http://www.w3.org/2000/svg" xmlns:xlink="http://www.w3.org/1999/xlink" x="0px" y="0px"
	 viewBox="0 0 64 64" style="enable-background:new 0 0 64 64;" xml:space="preserve">
<g id="XMLID_11_">
	<path id="XMLID_12_" d="M41.5,5.6l-7.6,23.8h-8.6l-3.8-12.7l-4,12.7H8.8L1.1,5.6h8.3l4.1,13.5l4.4-13.5h7.4l4.1,13.7l4.4-13.7H41.5
		z"/>
	<path id="XMLID_14_" d="M63,23.3v6.1H43.2V5.6h19.3v6.1H51.1v2.8h10.1v5.8H51.1v3.1H63z"/>
</g>
<g id="XMLID_3_">
	<path id="XMLID_4_" d="M1,35.3h9.7c2.2,0,4.1,0.4,5.8,1.2c1.7,0.8,3,1.9,3.9,3.4c0.9,1.5,1.4,3.2,1.4,5.2c0,2-0.5,3.7-1.4,5.2
		c-0.9,1.5-2.2,2.6-3.9,3.4c-1.7,0.8-3.6,1.2-5.8,1.2H1V35.3z M10.4,49.8c1.4,0,2.6-0.4,3.4-1.2c0.8-0.8,1.3-2,1.3-3.4
		s-0.4-2.6-1.3-3.4c-0.8-0.8-2-1.2-3.4-1.2H7.7v9.3H10.4z"/>
	<path id="XMLID_7_" d="M40.5,49.9v5H24.2V35.3h15.9v5h-9.4v2.3H39v4.8h-8.3v2.6H40.5z"/>
	<path id="XMLID_9_" d="M63.7,35.3l-8.3,19.6h-6.5l-8.3-19.6h7.1l4.7,11.5l4.8-11.5H63.7z"/>
</g>
</svg>
