<?xml version="1.0" encoding="utf-8"?>
<svg version="1.1" id="Layer_1" xmlns="http://www.w3.org/2000/svg" xmlns:xlink="http://www.w3.org/1999/xlink" x="0px" y="0px"
	 viewBox="0 0 155.4 17.9" style="enable-background:new 0 0 155.4 17.9;" xml:space="preserve">
<style type="text/css">
	.st0{fill:none;}
</style>
<rect id="XMLID_1_" x="41.1" y="6.2" class="st0" width="0.1" height="6.4"/>
<g id="XMLID_43_">
	<path id="XMLID_44_" d="M26,1.3L21.3,16H16l-2.4-7.9L11.2,16H5.8L1.1,1.3h5.1l2.6,8.4l2.7-8.4h4.6l2.6,8.5l2.7-8.5H26z"/>
	<path id="XMLID_46_" d="M39.4,12.3V16H27.1V1.3h11.9v3.7H32v1.7h6.2v3.6H32v1.9H39.4z"/>
	<path id="XMLID_48_" d="M47.6,1.3h7.2c1.6,0,3.1,0.3,4.3,0.9c1.3,0.6,2.2,1.4,2.9,2.6c0.7,1.1,1,2.4,1,3.9c0,1.5-0.3,2.8-1,3.9
		c-0.7,1.1-1.7,2-2.9,2.6c-1.3,0.6-2.7,0.9-4.3,0.9h-7.2V1.3z M54.6,12.2c1.1,0,1.9-0.3,2.6-0.9c0.6-0.6,1-1.5,1-2.6
		c0-1.1-0.3-2-1-2.6c-0.6-0.6-1.5-0.9-2.6-0.9h-2.1v7H54.6z"/>
	<path id="XMLID_51_" d="M77.1,12.3V16H64.9V1.3h11.9v3.7h-7.1v1.7H76v3.6h-6.2v1.9H77.1z"/>
	<path id="XMLID_53_" d="M94.5,1.3L88.3,16h-4.9L77.2,1.3h5.3l3.5,8.6l3.6-8.6H94.5z"/>
	<path id="XMLID_55_" d="M107.3,12.3V16H95V1.3H107v3.7h-7.1v1.7h6.2v3.6h-6.2v1.9H107.3z"/>
	<path id="XMLID_57_" d="M109.2,1.3h5v10.9h6.6V16h-11.6V1.3z"/>
	<path id="XMLID_59_" d="M125.4,15.4c-1.3-0.7-2.2-1.6-3-2.7c-0.7-1.2-1.1-2.5-1.1-4c0-1.5,0.4-2.8,1.1-4c0.7-1.2,1.7-2.1,3-2.7
		c1.3-0.7,2.7-1,4.3-1s3,0.3,4.3,1s2.2,1.6,3,2.7c0.7,1.2,1.1,2.5,1.1,4c0,1.5-0.4,2.8-1.1,4c-0.7,1.2-1.7,2.1-3,2.7
		c-1.3,0.7-2.7,1-4.3,1S126.6,16,125.4,15.4z M131.3,11.9c0.5-0.3,0.9-0.7,1.2-1.3c0.3-0.6,0.4-1.2,0.4-1.9c0-0.7-0.1-1.4-0.4-1.9
		c-0.3-0.6-0.7-1-1.2-1.3c-0.5-0.3-1.1-0.5-1.7-0.5c-0.6,0-1.2,0.2-1.7,0.5c-0.5,0.3-0.9,0.7-1.2,1.3c-0.3,0.6-0.4,1.2-0.4,1.9
		c0,0.7,0.1,1.4,0.4,1.9c0.3,0.6,0.7,1,1.2,1.3c0.5,0.3,1.1,0.5,1.7,0.5C130.2,12.4,130.8,12.2,131.3,11.9z"/>
	<path id="XMLID_62_" d="M150.3,2c1,0.4,1.8,1.1,2.3,1.9c0.5,0.8,0.8,1.8,0.8,2.9s-0.3,2.1-0.8,2.9c-0.5,0.8-1.3,1.5-2.3,1.9
		c-1,0.4-2.2,0.7-3.5,0.7h-2.1V16h-5V1.3h7.1C148.2,1.3,149.3,1.6,150.3,2z M148,8.1c0.3-0.3,0.5-0.7,0.5-1.3c0-0.5-0.2-1-0.5-1.3
		c-0.3-0.3-0.8-0.5-1.5-0.5h-1.8v3.4h1.8C147.2,8.6,147.7,8.4,148,8.1z"/>
</g>
</svg>
