<?xml version="1.0" encoding="utf-8"?>
<!-- Generator: Adobe Illustrator 19.0.0, SVG Export Plug-In . SVG Version: 6.00 Build 0)  -->
<svg version="1.1" id="Layer_1" xmlns="http://www.w3.org/2000/svg" xmlns:xlink="http://www.w3.org/1999/xlink" x="0px" y="0px"
	 viewBox="241 -241 512 512" style="enable-background:new 241 -241 512 512;" xml:space="preserve">
<style type="text/css">
	.st0{fill:#E6EA96;}
</style>
<g>
	<g>
		<path class="st0" d="M742.5,71.2c-3.3-3-8.1-3.7-12.2-1.8c-31.3,15.1-64.9,22.8-99.8,22.8C504,92.3,401.1-10.7,401.1-137.2
			c0-28.1,5-55.5,14.9-81.5c1.6-4.2,0.5-8.9-2.9-12c-3.4-3.1-8.1-3.7-12.2-1.8C314.7-190.7,259-101.8,259-6.1
			c0,138.6,112.7,251.3,251.3,251.3c103.7,0,198.2-65.2,235-162.1C746.9,79,745.7,74.3,742.5,71.2z"/>
	</g>
</g>
</svg>
