<?xml version="1.0" encoding="utf-8"?>
<!-- Generator: Adobe Illustrator 19.0.0, SVG Export Plug-In . SVG Version: 6.00 Build 0)  -->
<svg version="1.1" id="Capa_1" xmlns="http://www.w3.org/2000/svg" xmlns:xlink="http://www.w3.org/1999/xlink" x="0px" y="0px"
	 viewBox="6 -5 41 41" style="enable-background:new 6 -5 41 41;" xml:space="preserve">
<style type="text/css">
	.st0{fill:#E6EA96;}
</style>
<g>
	<path class="st0" d="M36.2,15.7c0,5.4-4.4,9.7-9.7,9.7s-9.7-4.4-9.7-9.7S21.1,6,26.5,6S36.2,10.4,36.2,15.7z M26.5,2.9
		c0.6,0,1-0.4,1-1v-5.2c0-0.6-0.4-1-1-1s-1,0.4-1,1v5.2C25.5,2.5,25.9,2.9,26.5,2.9z M26.5,28.6c-0.6,0-1,0.4-1,1v5.2
		c0,0.6,0.4,1,1,1s1-0.4,1-1v-5.2C27.5,29,27.1,28.6,26.5,28.6z M45.5,14.8h-5.2c-0.6,0-1,0.4-1,1c0,0.6,0.4,1,1,1h5.2
		c0.6,0,1-0.4,1-1C46.4,15.1,46.1,14.8,45.5,14.8z M13.7,15.7c0-0.6-0.4-1-1-1H7.5c-0.6,0-1,0.4-1,1c0,0.6,0.4,1,1,1h5.2
		C13.3,16.7,13.7,16.3,13.7,15.7z M36.2,7c0.3,0,0.5-0.1,0.7-0.3L40.6,3c0.4-0.4,0.4-1,0-1.4c-0.4-0.4-1-0.4-1.4,0l-3.7,3.7
		c-0.4,0.4-0.4,1,0,1.4C35.7,6.9,36,7,36.2,7z M16.1,24.8l-3.7,3.7c-0.4,0.4-0.4,1,0,1.4c0.2,0.2,0.5,0.3,0.7,0.3
		c0.2,0,0.5-0.1,0.7-0.3l3.7-3.7c0.4-0.4,0.4-1,0-1.4C17.1,24.4,16.5,24.4,16.1,24.8z M36.9,24.8c-0.4-0.4-1-0.4-1.4,0
		c-0.4,0.4-0.4,1,0,1.4l3.7,3.7c0.2,0.2,0.5,0.3,0.7,0.3c0.2,0,0.5-0.1,0.7-0.3c0.4-0.4,0.4-1,0-1.4L36.9,24.8z M16.1,6.7
		C16.3,6.9,16.6,7,16.8,7c0.3,0,0.5-0.1,0.7-0.3c0.4-0.4,0.4-1,0-1.4l-3.7-3.7c-0.4-0.4-1-0.4-1.4,0C12,2,12,2.6,12.4,3L16.1,6.7z
		 M30.9,3.7c0.1,0,0.2,0.1,0.3,0.1c0.4,0,0.8-0.3,0.9-0.7l1.8-4.9c0.3-0.5,0-1.1-0.5-1.3S32.2-3,32-2.5l-1.8,4.9
		C30.1,3,30.4,3.5,30.9,3.7z M22.1,27.8c-0.5-0.2-1.1,0.1-1.3,0.6l-1.8,4.9c-0.2,0.5,0.1,1.1,0.6,1.3c0.1,0,0.2,0.1,0.3,0.1
		c0.4,0,0.8-0.3,0.9-0.7l1.8-4.9C22.9,28.5,22.6,28,22.1,27.8z M44.7,21.3l-4.9-1.8c-0.5-0.2-1.1,0.1-1.3,0.6s0.1,1.1,0.6,1.3
		l4.9,1.8c0.1,0,0.2,0.1,0.3,0.1c0.4,0,0.8-0.3,0.9-0.7C45.5,22.1,45.2,21.5,44.7,21.3z M8.3,10.2l4.9,1.8c0.1,0,0.2,0.1,0.3,0.1
		c0.4,0,0.8-0.3,0.9-0.7c0.2-0.5-0.1-1.1-0.6-1.3L8.9,8.3c-0.4-0.2-1,0.1-1.2,0.6C7.5,9.4,7.8,10,8.3,10.2z M38.1,10.3
		c0.2,0.4,0.5,0.6,0.9,0.6c0.1,0,0.3,0,0.4-0.1L44,8.5c0.5-0.2,0.7-0.8,0.5-1.3c-0.2-0.5-0.8-0.7-1.3-0.5L38.6,9
		C38.1,9.2,37.9,9.8,38.1,10.3z M14.9,21.2c-0.2-0.5-0.8-0.7-1.3-0.5L9,22.9c-0.5,0.2-0.7,0.8-0.5,1.3c0.2,0.4,0.5,0.6,0.9,0.6
		c0.1,0,0.3,0,0.4-0.1l4.7-2.2C14.9,22.3,15.1,21.7,14.9,21.2z M33.2,27.8c-0.2-0.5-0.8-0.7-1.3-0.5c-0.5,0.2-0.7,0.8-0.5,1.3
		l2.2,4.7c0.2,0.4,0.5,0.6,0.9,0.6c0.1,0,0.3,0,0.4-0.1c0.5-0.2,0.7-0.8,0.5-1.3L33.2,27.8z M19.8,3.7c0.2,0.4,0.5,0.6,0.9,0.6
		c0.1,0,0.3,0,0.4-0.1c0.5-0.2,0.7-0.8,0.5-1.3l-2.2-4.7c-0.2-0.5-0.8-0.7-1.3-0.5S17.4-1.5,17.5-1L19.8,3.7z"/>
</g>
</svg>
